<?xml version="1.0" encoding="utf-8"?>
<!-- Generator: Adobe Illustrator 16.0.0, SVG Export Plug-In . SVG Version: 6.00 Build 0)  -->
<!DOCTYPE svg PUBLIC "-//W3C//DTD SVG 1.1//EN" "http://www.w3.org/Graphics/SVG/1.1/DTD/svg11.dtd">
<svg version="1.1" id="Layer_1" xmlns="http://www.w3.org/2000/svg" xmlns:xlink="http://www.w3.org/1999/xlink" x="0px" y="0px"
	 width="2048px" height="1664px" viewBox="120.5 142 2048 1664" enable-background="new 120.5 142 2048 1664" xml:space="preserve">
<g>
	<path fill="#5E5557" d="M143.169,1580.45h52.489v20.579c11.907-9.651,22.689-16.32,32.346-20.092
		c9.653-3.726,19.554-5.638,29.649-5.638c20.731,0,38.325,6.961,52.784,20.828c12.154,11.812,18.28,29.262,18.28,52.339v132.526
		h-51.949v-87.823c0-23.92-1.128-39.802-3.332-47.64c-2.255-7.888-6.125-13.87-11.714-17.986
		c-5.537-4.115-12.449-6.175-20.632-6.175c-10.587,0-19.702,3.431-27.3,10.242c-7.595,6.814-12.89,16.224-15.831,28.276
		c-1.516,6.227-2.301,19.804-2.301,40.681v80.425h-52.489V1580.45L143.169,1580.45z"/>
	<path fill="#5E5557" d="M478.536,1622.692c-16.271,0-29.846,5.441-40.724,16.271c-10.834,10.884-16.273,24.803-16.273,41.754
		c0,17.451,5.341,31.615,16.077,42.396c10.732,10.836,24.308,16.224,40.724,16.224c16.469,0,30.144-5.44,41.022-16.367
		c10.927-10.979,16.37-25.047,16.37-42.252c0-17.202-5.345-31.165-16.077-41.896
		C508.922,1628.035,495.249,1622.692,478.536,1622.692z M477.703,1575.3c19.702,0,38.278,4.756,55.626,14.216
		c17.396,9.456,30.925,22.295,40.676,38.52c9.755,16.221,14.604,33.72,14.604,52.539c0,18.916-4.9,36.606-14.702,53.077
		c-9.802,16.463-23.183,29.31-40.088,38.562c-16.908,9.318-35.582,13.924-55.968,13.924c-29.994,0-55.58-10.192-76.797-30.682
		c-21.222-20.438-31.809-45.28-31.809-74.539c0-31.319,12.009-57.441,35.924-78.318C426.195,1584.416,450.405,1575.3,477.703,1575.3
		z"/>
	<polygon fill="#5E5557" points="609.097,1580.45 662.567,1580.45 715.396,1698.804 768.131,1580.45 821.308,1580.45 
		732.307,1780.994 698.294,1780.994 	"/>
	<path fill="#5E5557" d="M951.182,1621.763c-16.223,0-29.7,5.49-40.433,16.517c-10.735,10.976-16.077,25.093-16.077,42.295
		c0,17.296,5.44,31.559,16.369,42.734c10.928,11.176,24.357,16.766,40.333,16.766c16.47,0,30.143-5.496,41.022-16.476
		c10.83-11.025,16.271-25.432,16.271-43.222c0-17.446-5.441-31.612-16.271-42.39
		C981.517,1627.154,967.793,1621.763,951.182,1621.763z M1006.364,1580.45h52.487v200.544h-52.487v-21.174
		c-10.242,9.312-20.535,16.024-30.827,20.139c-10.292,4.123-21.466,6.18-33.521,6.18c-27.005,0-50.332-10.045-70.084-30.138
		c-19.7-20.048-29.552-45.045-29.552-74.894c0-30.967,9.509-56.359,28.621-76.105c19.065-19.799,42.246-29.701,69.496-29.701
		c12.546,0,24.308,2.307,35.335,6.815c11.027,4.557,21.171,11.37,30.533,20.482L1006.364,1580.45L1006.364,1580.45z"/>
	<path fill="#5E5557" d="M1318.403,1622.107l-21.365,12.738c-18.431-23.475-43.619-35.185-75.476-35.185
		c-25.485,0-46.606,7.839-63.467,23.521c-16.812,15.732-25.238,34.801-25.238,57.294c0,14.601,3.869,28.324,11.614,41.215
		c7.741,12.886,18.378,22.889,31.902,29.991c13.477,7.155,28.621,10.683,45.387,10.683c30.729,0,55.818-11.711,75.276-35.188
		l21.365,13.43c-10,14.453-23.428,25.637-40.284,33.616c-16.861,7.946-36.072,11.913-57.585,11.913
		c-33.082,0-60.479-10.045-82.287-30.188c-21.812-20.193-32.688-44.695-32.688-73.562c0-19.407,5.095-37.441,15.286-54.107
		c10.195-16.616,24.163-29.652,42.004-38.964c17.79-9.358,37.735-14.017,59.79-14.017c13.821,0,27.201,2.011,40.089,6.078
		c12.891,4.066,23.817,9.361,32.786,15.878C1304.484,1603.73,1312.131,1612.055,1318.403,1622.107z"/>
	<path fill="#5E5557" d="M1469.008,1600.542c-22.396,0-41.605,7.938-57.685,23.812c-16.073,15.834-24.111,35-24.111,57.491
		c0,14.509,3.675,27.984,10.981,40.529c7.349,12.548,17.249,22.206,29.746,29.013c12.449,6.862,26.168,10.247,41.067,10.247
		s28.622-3.385,41.068-10.247c12.501-6.807,22.399-16.465,29.751-29.013c7.302-12.545,10.975-26.021,10.975-40.529
		c0-22.491-8.084-41.657-24.208-57.491C1510.469,1608.48,1491.257,1600.542,1469.008,1600.542z M1469.105,1575.3
		c32.248,0,58.907,11.177,80.131,33.571c19.211,20.386,28.867,44.497,28.867,72.391c0,28.026-10.195,52.534-30.534,73.46
		c-20.339,20.979-46.509,31.416-78.464,31.416c-32.101,0-58.319-10.438-78.659-31.416c-20.388-20.926-30.531-45.434-30.531-73.46
		c0-27.738,9.604-51.853,28.865-72.242C1409.952,1586.577,1436.76,1575.3,1469.105,1575.3z"/>
	<path fill="#5E5557" d="M1728.706,1600.198c-14.948,0-28.766,3.532-41.459,10.586c-12.644,7.055-22.74,16.956-30.241,29.75
		c-7.499,12.738-11.22,26.218-11.22,40.479c0,14.116,3.772,27.591,11.317,40.481c7.548,12.894,17.694,22.935,30.438,30.094
		c12.741,7.204,26.412,10.777,41.018,10.777c14.703,0,28.673-3.526,41.855-10.683c13.183-7.104,23.328-16.71,30.434-28.861
		c7.107-12.154,10.636-25.832,10.636-41.073c0-23.183-7.938-42.589-23.916-58.172
		C1771.639,1607.987,1752.035,1600.198,1728.706,1600.198z M1836.28,1580.45v200.544h-26.513v-34.454
		c-11.272,13.138-23.965,23.033-37.98,29.649c-14.02,6.664-29.357,9.948-46.021,9.948c-29.6,0-54.89-10.293-75.864-30.873
		c-20.979-20.537-31.414-45.583-31.414-75.084c0-28.87,10.588-53.565,31.709-74.104c21.123-20.484,46.604-30.777,76.354-30.777
		c17.156,0,32.69,3.529,46.608,10.539c13.868,6.959,26.122,17.5,36.608,31.51v-36.898H1836.28L1836.28,1580.45z"/>
	<path fill="#5E5557" d="M2001.98,1602.403l-17.252,17.154c-14.406-13.378-28.476-20.098-42.195-20.098
		c-8.772,0-16.271,2.748-22.494,8.29c-6.224,5.53-9.361,11.953-9.361,19.352c0,6.521,2.598,12.694,7.744,18.631
		c5.098,6.025,15.877,13.085,32.346,21.169c20.043,9.946,33.666,19.548,40.823,28.767c7.107,9.361,10.638,19.85,10.638,31.512
		c0,16.471-6.079,30.387-18.136,41.855c-12.056,11.418-27.15,17.104-45.233,17.104c-12.058,0-23.575-2.502-34.554-7.549
		s-20.047-11.954-27.25-20.827l16.909-18.427c13.771,14.846,28.329,22.299,43.767,22.299c10.782,0,19.945-3.284,27.542-9.95
		c7.597-6.613,11.369-14.404,11.369-23.423c0-7.352-2.495-13.917-7.547-19.705c-5-5.633-16.271-12.793-33.865-21.367
		c-18.916-9.361-31.756-18.569-38.567-27.642c-6.766-9.116-10.196-19.454-10.196-31.17c0-15.239,5.441-27.885,16.272-37.937
		c10.881-10.094,24.554-15.142,41.116-15.142C1963.119,1575.3,1982.526,1584.316,2001.98,1602.403z"/>
	<polygon fill="#5E5557" points="2073.141,1506.001 2100.049,1506.001 2100.049,1580.45 2142.736,1580.45 2142.736,1602.748 
		2100.049,1602.748 2100.049,1780.994 2073.141,1780.994 2073.141,1602.748 2036.436,1602.748 2036.436,1580.45 2073.141,1580.45 	
		"/>
	<path fill="#FC9A18" d="M608.507,193.543h286.165v117.032c64.891-54.793,123.651-92.873,176.385-114.337
		c52.636-21.419,106.545-32.101,161.73-32.101c113.012,0,208.973,39.548,287.829,118.65c66.309,67.191,99.438,166.58,99.438,298.17
		v754.982h-283.025v-500.28c0-136.344-6.126-226.863-18.33-271.658c-12.2-44.745-33.423-78.807-63.759-102.231
		c-30.34-23.429-67.832-35.14-112.43-35.14c-57.877,0-107.524,19.407-148.985,58.222c-41.51,38.815-70.279,92.48-86.306,160.995
		c-8.38,35.63-12.547,112.917-12.547,231.765v458.33H608.507V193.543z"/>
</g>
</svg>
